<svg width="235" height="586" viewBox="0 0 235 586" fill="none" xmlns="http://www.w3.org/2000/svg">
<path d="M44.3319 260.352L117.849 260.352L191.366 260.352M44.3319 260.352L36.1633 190.92M44.3319 260.352L44.3319 372.67M36.1633 190.92L58.6269 178.667L117.849 178.667L177.071 178.667L199.535 190.92M36.1633 190.92L13.6999 86.0409L52.5005 17.3372L117.849 12.1729L183.198 17.3372L221.999 86.0409L199.535 190.92M36.1633 190.92L13.6997 213.383M52.5005 5.0843L117.849 1.00001L183.198 5.0843M52.5005 5.0843L3.48899 56.1379M52.5005 5.0843L13.6997 72.4751L3.48899 56.1379M3.48899 56.1379L3.48899 178.667L13.6997 213.383M13.6997 213.383L13.6997 348.165M13.6997 348.165L1.44684 431.893M13.6997 348.165L44.3319 372.67M1.44684 431.893L1.44684 542.169L13.6997 574.843M1.44684 431.893L44.3319 372.67M1.44684 431.893L54.5426 411.06M13.6997 574.843L54.5426 585.054M13.6997 574.843L27.0191 542.169M54.5426 585.054L117.849 585.054L181.156 585.054M54.5426 585.054L27.0191 542.169M44.3319 372.67L191.366 372.67M44.3319 372.67L54.5426 411.06M191.366 260.352L199.535 190.92M191.366 260.352L191.366 372.67M199.535 190.92L221.999 213.383M183.198 5.0843L232.209 56.1379M183.198 5.0843L221.999 72.4751L232.209 56.1379M232.209 56.1379L232.209 178.667L221.999 213.383M221.999 213.383L221.999 348.165M221.999 348.165L234.251 431.893M221.999 348.165L191.366 372.67M234.251 431.893L234.251 542.169L221.999 574.843M234.251 431.893L191.366 372.67M234.251 431.893L181.156 411.06M221.999 574.843L181.156 585.054M221.999 574.843L205.944 542.169M181.156 585.054L205.944 542.169M191.366 372.67L181.156 411.06M54.5426 411.06L181.156 411.06M54.5426 411.06L27.0191 542.169M181.156 411.06L205.944 542.169" stroke="#E8EEED"/>
</svg>
